<svg width="18" height="22" viewBox="0 0 18 22" fill="none" xmlns="http://www.w3.org/2000/svg">
<path d="M13.3751 0.0110096C13.3284 -0.0412404 11.644 0.0316347 10.1783 1.62251C8.71252 3.21201 8.93802 5.03526 8.97102 5.08201C9.00402 5.12876 11.061 5.20163 12.3741 3.35226C13.6873 1.50288 13.4219 0.0646346 13.3751 0.0110096ZM17.9319 16.1439C17.8659 16.0119 14.735 14.4471 15.0265 11.4386C15.318 8.43013 17.3296 7.60376 17.3613 7.51439C17.3929 7.42501 16.5404 6.42813 15.637 5.92351C14.9736 5.56807 14.2396 5.36426 13.4879 5.32676C13.3394 5.32263 12.8238 5.19613 11.7636 5.48626C11.0651 5.67738 9.49077 6.29613 9.05765 6.32089C8.62315 6.34563 7.33065 5.60313 5.94052 5.40651C5.0509 5.23463 4.10765 5.58664 3.43252 5.85751C2.75877 6.12701 1.47727 6.89426 0.580773 8.93338C-0.315727 10.9711 0.153148 14.1996 0.488648 15.2034C0.824148 16.2071 1.34802 17.8489 2.23902 19.0479C3.03102 20.4009 4.08152 21.34 4.52015 21.659C4.95877 21.978 6.19627 22.1898 7.05427 21.7511C7.74452 21.3276 8.99027 21.0843 9.48252 21.1021C9.9734 21.12 10.9414 21.3139 11.9328 21.8433C12.7179 22.1141 13.4604 22.0014 14.2043 21.6989C14.9481 21.395 16.0248 20.2428 17.2815 17.9066C17.7582 16.8204 17.975 16.2328 17.9319 16.1439Z" fill="black"/>
<path d="M13.3751 0.0110096C13.3284 -0.0412404 11.644 0.0316347 10.1783 1.62251C8.71252 3.21201 8.93802 5.03526 8.97102 5.08201C9.00402 5.12876 11.061 5.20163 12.3741 3.35226C13.6873 1.50288 13.4219 0.0646346 13.3751 0.0110096ZM17.9319 16.1439C17.8659 16.0119 14.735 14.4471 15.0265 11.4386C15.318 8.43013 17.3296 7.60376 17.3613 7.51439C17.3929 7.42501 16.5404 6.42813 15.637 5.92351C14.9736 5.56807 14.2396 5.36426 13.4879 5.32676C13.3394 5.32263 12.8238 5.19613 11.7636 5.48626C11.0651 5.67738 9.49077 6.29613 9.05765 6.32089C8.62315 6.34563 7.33065 5.60313 5.94052 5.40651C5.0509 5.23463 4.10765 5.58664 3.43252 5.85751C2.75877 6.12701 1.47727 6.89426 0.580773 8.93338C-0.315727 10.9711 0.153148 14.1996 0.488648 15.2034C0.824148 16.2071 1.34802 17.8489 2.23902 19.0479C3.03102 20.4009 4.08152 21.34 4.52015 21.659C4.95877 21.978 6.19627 22.1898 7.05427 21.7511C7.74452 21.3276 8.99027 21.0843 9.48252 21.1021C9.9734 21.12 10.9414 21.3139 11.9328 21.8433C12.7179 22.1141 13.4604 22.0014 14.2043 21.6989C14.9481 21.395 16.0248 20.2428 17.2815 17.9066C17.7582 16.8204 17.975 16.2328 17.9319 16.1439Z" fill="black"/>
</svg>
