<svg width="25" height="24" viewBox="0 0 25 24" fill="none" xmlns="http://www.w3.org/2000/svg">
<path d="M19.0017 2.5L19.5311 1.96874C19.4207 1.85872 19.2787 1.78583 19.125 1.7602L19.0017 2.5ZM22.4999 5.986L23.1112 6.42057C23.3235 6.12187 23.2889 5.71344 23.0293 5.45474L22.4999 5.986ZM20.0017 9.5L19.5517 10.1C19.7134 10.2213 19.9174 10.2722 20.1172 10.2411C20.317 10.2099 20.4958 10.0994 20.6129 9.93457L20.0017 9.5ZM12.5017 5L12.0136 5.56944L12.5017 5.98781L12.9898 5.56944L12.5017 5ZM16.0017 2L16.125 1.2602C15.906 1.22371 15.6821 1.28609 15.5136 1.43056L16.0017 2ZM6.00166 2.5L5.87836 1.7602C5.72461 1.78583 5.58267 1.85872 5.47226 1.96874L6.00166 2.5ZM2.50342 5.986L1.97402 5.45474C1.71441 5.71344 1.67979 6.12187 1.89215 6.42057L2.50342 5.986ZM5.00166 9.5L4.3904 9.93457C4.50757 10.0994 4.68634 10.2099 4.88615 10.2411C5.08596 10.2722 5.28988 10.2213 5.45166 10.1L5.00166 9.5ZM9.00166 2L9.48975 1.43056C9.32121 1.28609 9.09733 1.22371 8.87836 1.2602L9.00166 2ZM18.4723 3.03126L21.9705 6.51726L23.0293 5.45474L19.5311 1.96874L18.4723 3.03126ZM17.5517 8.6L19.5517 10.1L20.4517 8.9L18.4517 7.4L17.5517 8.6ZM21.8886 5.55143L19.3904 9.06543L20.6129 9.93457L23.1112 6.42057L21.8886 5.55143ZM12.9898 5.56944L16.4898 2.56944L15.5136 1.43056L12.0136 4.43056L12.9898 5.56944ZM15.8784 2.7398L18.8784 3.2398L19.125 1.7602L16.125 1.2602L15.8784 2.7398ZM5.47226 1.96874L1.97402 5.45474L3.03282 6.51726L6.53106 3.03126L5.47226 1.96874ZM6.55166 7.4L4.55166 8.9L5.45166 10.1L7.45166 8.6L6.55166 7.4ZM1.89215 6.42057L4.3904 9.93457L5.61293 9.06543L3.11468 5.55143L1.89215 6.42057ZM12.9898 4.43056L9.48975 1.43056L8.51357 2.56944L12.0136 5.56944L12.9898 4.43056ZM8.87836 1.2602L5.87836 1.7602L6.12496 3.2398L9.12496 2.7398L8.87836 1.2602Z" fill="white"/>
<path d="M7.09944 13.3062L7.83245 13.465C7.83465 13.4548 7.83664 13.4446 7.83842 13.4343L7.09944 13.3062ZM5.5 20.6921L4.76699 20.5334L4.63691 21.134L5.2003 21.3796L5.5 20.6921ZM17.9034 13.3062L17.1644 13.4343C17.1662 13.4445 17.1681 13.4546 17.1703 13.4647L17.9034 13.3062ZM19.5 20.6921L19.7998 21.3796L20.3629 21.134L20.2331 20.5336L19.5 20.6921ZM6.36643 13.1475L4.76699 20.5334L6.23301 20.8508L7.83245 13.465L6.36643 13.1475ZM5.89838 6.94593C6.52098 7.78787 6.74094 8.79694 6.74716 9.89357C6.75344 11.0024 6.54318 12.1238 6.36045 13.1782L7.83842 13.4343C8.01361 12.4235 8.25434 11.1559 8.24713 9.88507C8.23986 8.60201 7.98185 7.24059 7.10445 6.05407L5.89838 6.94593ZM17.1703 13.4647L18.7669 20.8506L20.2331 20.5336L18.6365 13.1478L17.1703 13.4647ZM17.8984 6.05407C17.021 7.24059 16.763 8.60201 16.7557 9.88507C16.7485 11.1559 16.9892 12.4235 17.1644 13.4343L18.6424 13.1782C18.4596 12.1238 18.2494 11.0024 18.2557 9.89357C18.2619 8.79694 18.4819 7.78787 19.1044 6.94593L17.8984 6.05407ZM5.2003 21.3796C7.31623 22.302 9.92326 22.75 12.5005 22.75C15.0778 22.75 17.6845 22.302 19.7998 21.3796L19.2002 20.0046C17.3165 20.8261 14.9234 21.25 12.5005 21.25C10.0776 21.25 7.68417 20.8261 5.7997 20.0046L5.2003 21.3796Z" fill="white"/>
</svg>
