<svg width="22" height="22" viewBox="0 0 22 22" fill="none" xmlns="http://www.w3.org/2000/svg">
<path d="M19.9885 9.20438H19.2502V9.16634H11.0002V12.833H16.1807C15.4249 14.9675 13.394 16.4997 11.0002 16.4997C7.96279 16.4997 5.50016 14.037 5.50016 10.9997C5.50016 7.9623 7.96279 5.49967 11.0002 5.49967C12.4022 5.49967 13.6777 6.02859 14.649 6.89255L17.2417 4.29976C15.6046 2.77397 13.4147 1.83301 11.0002 1.83301C5.93787 1.83301 1.8335 5.93738 1.8335 10.9997C1.8335 16.062 5.93787 20.1663 11.0002 20.1663C16.0625 20.1663 20.1668 16.062 20.1668 10.9997C20.1668 10.385 20.1036 9.78509 19.9885 9.20438Z" fill="#8D6E10"/>
<path d="M2.89014 6.73305L5.90184 8.94176C6.71676 6.92417 8.69035 5.49967 10.9999 5.49967C12.4019 5.49967 13.6775 6.02859 14.6487 6.89255L17.2415 4.29976C15.6043 2.77397 13.4144 1.83301 10.9999 1.83301C7.47897 1.83301 4.42555 3.8208 2.89014 6.73305Z" fill="#8A2D0F"/>
<path d="M11 20.167C13.3677 20.167 15.5191 19.2609 17.1458 17.7873L14.3087 15.3866C13.3574 16.11 12.1951 16.5013 11 16.5003C8.61573 16.5003 6.59127 14.98 5.82861 12.8584L2.83936 15.1615C4.35644 18.1301 7.43736 20.167 11 20.167Z" fill="#346335"/>
<path d="M19.9884 9.20503H19.25V9.16699H11V12.8337H16.1805C15.819 13.8495 15.1678 14.7372 14.3073 15.387L14.3087 15.3861L17.1458 17.7869C16.945 17.9693 20.1667 15.5837 20.1667 11.0003C20.1667 10.3857 20.1034 9.78574 19.9884 9.20503Z" fill="#E25319"/>
</svg>
