<svg width="190" height="50" viewBox="0 0 190 50" fill="none" xmlns="http://www.w3.org/2000/svg">
<path d="M60.5806 31.2998H60.8247C63.3556 31.2998 65.3657 32.3862 66.855 34.5591V34.6689C65.7726 35.5234 65.0565 36.0687 64.7065 36.3047L64.2549 36.3779C63.9701 36.3779 63.5265 36.1582 62.9243 35.7188C62.078 35.2223 61.3089 34.9741 60.6172 34.9741C59.543 34.9741 58.8065 35.3607 58.4077 36.1338C58.3589 36.3047 58.3345 36.4227 58.3345 36.4878C58.3345 37.4644 59.5715 38.1398 62.0454 38.5142C63.9904 38.9862 65.4064 39.6901 66.2935 40.626C67.1561 41.5618 67.5874 42.7622 67.5874 44.2271C67.5874 46.4976 66.2894 48.0316 63.6934 48.8291C62.79 49.0814 61.8908 49.2075 60.9956 49.2075H60.3364C58.009 49.2075 56.0558 48.5768 54.4771 47.3154C53.6063 46.7702 53.1139 46.4325 53 46.3022C54.6764 44.9025 55.5879 44.2026 55.7344 44.2026C55.8239 44.1538 55.9175 44.1294 56.0151 44.1294H56.1616C56.4546 44.1294 57.0161 44.3979 57.8462 44.9351C58.5868 45.2606 59.25 45.4233 59.8359 45.4233C60.5195 45.4233 61.1868 45.2687 61.8379 44.9595C62.4889 44.6421 62.8145 44.2718 62.8145 43.8486C62.8145 43.1732 62.2855 42.7419 61.2275 42.5547C60.1777 42.3675 58.7943 41.9199 57.0771 41.2119C54.8311 39.9993 53.708 38.4816 53.708 36.6587V36.3779C53.708 34.5387 54.7375 33.0902 56.7964 32.0322C57.9276 31.5439 59.189 31.2998 60.5806 31.2998Z" fill="white"/>
<path d="M69.4795 31.5073H82.0894C82.1382 31.5155 82.1626 31.5399 82.1626 31.5806V35.499C82.1626 35.5479 82.1382 35.5723 82.0894 35.5723H77.3408V48.9268C77.3408 48.9756 77.3164 49 77.2676 49H73.105C73.0562 49 73.0317 48.9756 73.0317 48.9268V36.0972C72.9992 35.7472 72.8242 35.5723 72.5068 35.5723H68.2832C68.2344 35.5723 68.21 35.5479 68.21 35.499V32.7646C68.21 32.2031 68.4663 31.8084 68.979 31.5806C69.158 31.5317 69.3249 31.5073 69.4795 31.5073Z" fill="white"/>
<path d="M87.9243 31.5073H90.7563C90.8459 31.5073 92.9129 37.3382 96.9575 49H93.6616C92.9943 49 92.5508 48.6826 92.3311 48.0479C91.8672 46.4528 91.5661 45.6268 91.4277 45.5698C91.2975 45.4722 91.1226 45.4233 90.9028 45.4233H86.9844L88.1318 42.0908C88.2458 41.7409 88.7259 41.5903 89.5723 41.6392C89.8652 41.6147 89.9792 41.4154 89.9141 41.041L88.8398 37.7451L84.9092 49H80.71L86.6182 32.1421C86.8786 31.7189 87.314 31.5073 87.9243 31.5073Z" fill="white"/>
<path d="M100.705 31.5073H108.029C109.689 31.5073 110.869 31.8695 111.569 32.5938C112.766 33.6924 113.364 35.1776 113.364 37.0493C113.364 38.9862 112.66 40.5161 111.252 41.6392C110.699 42.0135 110.324 42.2007 110.129 42.2007V42.2739L114.047 48.9634L113.974 49H110.019C109.197 49 108.636 48.6134 108.334 47.8403L105.441 42.4448H103.891V48.9268C103.891 48.9756 103.871 49 103.83 49H99.4844C99.4355 49 99.4111 48.9756 99.4111 48.9268V32.9111C99.4111 32.252 99.6675 31.8084 100.18 31.5806C100.4 31.5317 100.575 31.5073 100.705 31.5073ZM103.891 35.6089V37.855C103.932 38.2049 104.107 38.3799 104.416 38.3799H108.457C109.197 38.2415 109.567 37.7858 109.567 37.0127V36.8418C109.453 36.0199 109.104 35.6089 108.518 35.6089H103.891Z" fill="white"/>
<path d="M130.283 31.2998H130.527C133.058 31.2998 135.068 32.3862 136.557 34.5591V34.6689C135.475 35.5234 134.759 36.0687 134.409 36.3047L133.957 36.3779C133.672 36.3779 133.229 36.1582 132.626 35.7188C131.78 35.2223 131.011 34.9741 130.319 34.9741C129.245 34.9741 128.509 35.3607 128.11 36.1338C128.061 36.3047 128.037 36.4227 128.037 36.4878C128.037 37.4644 129.274 38.1398 131.748 38.5142C133.693 38.9862 135.109 39.6901 135.996 40.626C136.858 41.5618 137.29 42.7622 137.29 44.2271C137.29 46.4976 135.992 48.0316 133.396 48.8291C132.492 49.0814 131.593 49.2075 130.698 49.2075H130.039C127.711 49.2075 125.758 48.5768 124.179 47.3154C123.308 46.7702 122.816 46.4325 122.702 46.3022C124.379 44.9025 125.29 44.2026 125.437 44.2026C125.526 44.1538 125.62 44.1294 125.717 44.1294H125.864C126.157 44.1294 126.718 44.3979 127.548 44.9351C128.289 45.2606 128.952 45.4233 129.538 45.4233C130.222 45.4233 130.889 45.2687 131.54 44.9595C132.191 44.6421 132.517 44.2718 132.517 43.8486C132.517 43.1732 131.988 42.7419 130.93 42.5547C129.88 42.3675 128.496 41.9199 126.779 41.2119C124.533 39.9993 123.41 38.4816 123.41 36.6587V36.3779C123.41 34.5387 124.44 33.0902 126.499 32.0322C127.63 31.5439 128.891 31.2998 130.283 31.2998Z" fill="white"/>
<path d="M144.101 31.5073C144.15 31.5155 144.174 31.5399 144.174 31.5806V38.3799H148.032C148.406 38.3473 148.593 38.1724 148.593 37.855V32.7646C148.667 31.9264 149.086 31.5073 149.851 31.5073H152.951C153 31.5155 153.024 31.5399 153.024 31.5806V48.8901C153.024 48.939 153 48.9634 152.951 48.9634C150.9 48.9878 149.46 49 148.63 49L148.593 48.9268V42.6157C148.593 42.2902 148.374 42.1274 147.934 42.1274H144.174V48.8901C144.174 48.939 144.15 48.9634 144.101 48.9634C142.05 48.9878 140.61 49 139.78 49L139.743 48.9268V32.7036C139.857 31.9061 140.256 31.5073 140.939 31.5073H144.101Z" fill="white"/>
<path d="M176.706 31.5073H184.03C185.487 31.5073 186.537 31.7637 187.18 32.2764C188.636 33.4157 189.365 34.9456 189.365 36.8662V37.1226C189.365 38.9455 188.697 40.4266 187.363 41.5659C186.549 42.1519 185.731 42.4448 184.909 42.4448H179.892V48.9268C179.892 48.9756 179.868 49 179.819 49H175.473C175.432 49 175.412 48.9756 175.412 48.9268V32.9478C175.412 32.2642 175.668 31.8084 176.181 31.5806C176.401 31.5317 176.576 31.5073 176.706 31.5073ZM179.892 35.6089V37.8184C179.933 38.1927 180.108 38.3799 180.417 38.3799H184.458C184.946 38.3799 185.296 38.0747 185.507 37.4644C185.548 37.3748 185.568 37.2487 185.568 37.0859V36.7319C185.414 35.9832 185.064 35.6089 184.519 35.6089H179.892Z" fill="white"/>
<path fill-rule="evenodd" clip-rule="evenodd" d="M163.95 31.2998H164.45C166.932 31.2998 169.105 32.2926 170.969 34.2783C172.295 35.9466 172.958 37.9567 172.958 40.3086C172.958 43.4173 171.791 45.8465 169.455 47.5962C167.844 48.6704 166.196 49.2075 164.511 49.2075H163.913C161.602 49.2075 159.535 48.3083 157.712 46.5098C156.215 44.8333 155.466 42.811 155.466 40.4429V40.1011C155.466 36.7808 156.833 34.2539 159.567 32.5205C161 31.7067 162.46 31.2998 163.95 31.2998ZM167.319 43.2993C166.464 44.1782 165.435 44.6177 164.23 44.6177C163.026 44.6177 161.997 44.1782 161.142 43.2993C160.296 42.4123 159.873 41.3421 159.873 40.0889C159.873 38.8438 160.296 37.7817 161.142 36.9028C161.997 36.0158 163.026 35.5723 164.23 35.5723C165.435 35.5723 166.464 36.0158 167.319 36.9028C168.173 37.7817 168.601 38.8438 168.601 40.0889C168.601 41.3421 168.173 42.4123 167.319 43.2993Z" fill="#E25319"/>
<path fill-rule="evenodd" clip-rule="evenodd" d="M28.9525 2.16717C28.9409 2.1382 28.9276 2.11753 28.9124 2.10567C28.3782 1.69017 23.0517 7.00809 18.7322 16.3606C19.2649 18.0633 20.7274 21.0237 22.273 23.8202C22.6293 24.465 22.9894 25.0999 23.3428 25.7074C23.5799 21.3465 23.9009 16.7022 24.287 14.1735C24.7217 11.3266 25.9483 8.22363 27.061 5.8395C27.618 4.64586 28.1481 3.62925 28.5389 2.9109C28.7046 2.60641 28.8453 2.35543 28.9525 2.16717ZM23.6848 25.8747C23.6848 25.874 23.6849 25.8733 23.6849 25.8726C25.5733 23.9733 27.4882 21.8242 29.7355 18.6112C39.5272 17.8146 46.859 21.0914 47.5753 22.0482C44.7044 21.8458 41.0134 21.6309 36.3945 22.1588C35.1507 22.301 33.6786 22.6841 32.0275 23.1902C30.96 23.5175 29.8113 23.8982 28.5967 24.3007L28.5967 24.3008L28.5966 24.3008L28.5966 24.3008L28.5966 24.3008L28.5964 24.3008L28.5956 24.3011L28.5938 24.3017L28.5902 24.3029C27.9286 24.5222 27.2473 24.748 26.5489 24.9751C25.6242 25.2759 24.6681 25.5795 23.6848 25.8747ZM23.3082 26.3525C23.295 26.3564 23.2819 26.3603 23.2688 26.3641L23.2406 26.3724L23.2172 26.3793C23.1977 26.385 23.1782 26.3907 23.1587 26.3964C22.5226 27.0236 21.8863 27.631 21.238 28.2499L21.2379 28.2499C20.1718 29.2676 19.0734 30.3162 17.8903 31.5346C16.7326 32.7268 15.1291 35.0678 13.6028 37.9149C12.1824 40.5645 10.8356 43.6398 9.98128 46.6136C10.2352 46.4133 10.7216 45.8787 11.3766 45.1589C12.5136 43.9091 14.1587 42.101 15.9773 40.5146C18.9711 37.903 22.3121 35.9858 22.8984 35.6569C22.9011 35.5786 22.9043 35.4907 22.9078 35.3937C22.9243 34.9377 22.9487 34.28 22.9808 33.4732C23.045 31.8597 23.1395 29.6494 23.261 27.2626C23.2763 26.9618 23.292 26.6581 23.3082 26.3525ZM23.2446 35.7845C23.2483 35.6809 23.2528 35.5542 23.2581 35.4063C23.2746 34.9507 23.299 34.2935 23.3311 33.4872C23.3952 31.8745 23.4897 29.6655 23.6111 27.2804C23.6178 27.1494 23.6245 27.0178 23.6313 26.8858C23.8694 27.2829 24.1014 27.6621 24.3238 28.0176C25.0463 29.1723 25.674 30.0871 26.0819 30.5472C29.6375 34.5581 32.5042 38.1309 34.539 41.1343C36.4442 43.9463 37.6061 46.2392 37.936 47.9163C37.7395 47.9128 37.5716 47.6857 37.2484 47.2485C36.7112 46.5219 35.745 45.2148 33.5053 43.3891C29.831 40.3941 24.4706 36.6376 23.2446 35.7845ZM23.7138 25.3447C23.9487 21.0974 24.2614 16.6637 24.6336 14.2264C25.0606 11.4294 26.2703 8.36247 27.3786 5.98775C27.932 4.80197 28.4587 3.7919 28.8468 3.07844C28.9057 2.97026 28.9613 2.86892 29.0134 2.77482C29.0168 3.48296 28.9217 4.674 28.8148 6.01362V6.01366V6.01369C28.6784 7.72299 28.5226 9.67417 28.5274 11.1727C28.5299 11.9576 28.7673 13.6105 28.9944 15.1912L28.9944 15.1913L28.9944 15.1914C29.1866 16.5291 29.3714 17.815 29.4 18.4793C27.2947 21.4814 25.4886 23.5386 23.7138 25.3447ZM2.5583 16.6124C3.92842 15.8381 14.4524 15.8253 18.4706 16.6894C19.067 18.4584 20.4879 21.315 21.9661 23.9898C22.3209 24.6316 22.6795 25.264 23.0316 25.8697C21.0185 25.0835 19.3239 24.1935 17.1534 23.0536L17.1533 23.0535L17.1533 23.0535L17.1533 23.0535L17.1527 23.0532L17.1492 23.0514C16.7452 22.8392 16.3246 22.6183 15.8825 22.3879L15.8781 22.3856L15.8736 22.3835C15.1144 22.0407 14.2351 21.6263 13.2709 21.1719L13.2708 21.1718C10.1852 19.7177 6.23038 17.854 2.5583 16.6124ZM33.2205 28.8892C38.235 37.2081 38.1664 44.2427 38.0383 46.9277C37.5172 45.3036 36.4189 43.284 34.8293 40.9377C32.7826 37.9168 29.905 34.3314 26.3442 30.3146C25.9581 29.879 25.3442 28.9876 24.621 27.8317C24.3698 27.4303 24.1063 26.9982 23.8354 26.5441C26.1402 27.3666 28.9453 28.0901 33.2205 28.8892ZM22.4478 26.6013C19.6111 27.4058 16.5665 28.1063 13.41 28.4508C12.2765 30.9344 11.228 33.8379 10.6138 36.5532C9.96431 39.4241 9.63165 44.6892 9.722 46.2507C10.5875 43.3304 11.9073 40.3356 13.2938 37.7493C14.8262 34.891 16.4478 32.5169 17.6388 31.2903C18.8364 30.057 19.9424 29.0012 21.0122 27.9801L21.0122 27.9801L21.0122 27.98L21.0123 27.98C21.4965 27.5178 21.9733 27.0626 22.4478 26.6013ZM16.987 23.3622C19.11 24.4773 20.7958 25.3627 22.7713 26.144C19.8269 26.9953 16.6574 27.7439 13.3691 28.1026C12.9432 27.4846 11.3866 25.3523 8.86096 23.3021C6.02368 20.9989 2.69413 18.0688 2.42725 16.9381C6.08239 18.1721 10.0168 20.0261 13.1062 21.482L13.1064 21.4821L13.1073 21.4825C14.074 21.9381 14.958 22.3547 15.7248 22.701C16.1646 22.9303 16.5837 23.1504 16.987 23.3622ZM26.6573 25.3085C25.7582 25.6009 24.8283 25.8965 23.8715 26.1847C26.1642 27.0095 28.9603 27.7357 33.2661 28.5411C33.9801 28.058 36.7167 26.2684 39.9556 24.9497C42.5666 23.8457 44.4857 23.4075 45.7521 23.1183C46.8142 22.8757 47.4173 22.738 47.5845 22.4002C44.7137 22.1976 41.0386 21.9809 36.4343 22.5071C35.2241 22.6454 33.7777 23.0204 32.1303 23.5254C31.0664 23.8515 29.9249 24.2299 28.7134 24.6314L28.713 24.6315L28.7128 24.6316L28.7125 24.6317C28.048 24.8519 27.3625 25.0791 26.6573 25.3085Z" fill="#E25319"/>
</svg>
